<svg width="25" height="23" viewBox="0 0 25 23" fill="none" xmlns="http://www.w3.org/2000/svg">
<path fill-rule="evenodd" clip-rule="evenodd" d="M23.5704 3.21987C24.2136 4.48222 24.2136 6.13472 24.2136 9.43972V10.8374C24.2136 12.831 24.2136 13.8278 23.9752 14.6409C23.4097 16.5696 21.9014 18.0778 19.9728 18.6433C19.1597 18.8817 18.1629 18.8817 16.1693 18.8817H15.5216L15.4447 18.8818C14.2406 18.8895 13.0676 19.2654 12.0833 19.959L12.0207 20.0036L8.9394 22.2045C7.8831 22.959 6.49504 21.8694 6.97714 20.6642C7.31865 19.8104 6.68988 18.8817 5.77035 18.8817H5.06013C2.60164 18.8817 0.608643 16.8887 0.608643 14.4302L0.608643 9.43972C0.608643 6.13472 0.608643 4.48222 1.25184 3.21987C1.81761 2.10948 2.72039 1.20671 3.83078 0.640938C5.09312 -0.0022583 6.74562 -0.0022583 10.0506 -0.0022583L14.7716 -0.0022583C18.0766 -0.0022583 19.7291 -0.0022583 20.9915 0.640938C22.1019 1.20671 23.0046 2.10948 23.5704 3.21987ZM9.21768 9.16401C9.96488 8.41681 11.2372 8.71716 11.5714 9.71964C12.3217 11.9706 15.1786 12.6451 16.8564 10.9673L17.758 10.0656C18.1037 9.71996 18.1037 9.15949 17.758 8.8138C17.4123 8.46811 16.8519 8.46811 16.5062 8.8138L15.6046 9.71543C14.8574 10.4626 13.585 10.1623 13.2509 9.1598C12.5005 6.90879 9.64364 6.23437 7.96584 7.91217L7.06421 8.8138C6.71852 9.15949 6.71852 9.71996 7.06421 10.0656C7.4099 10.4113 7.97036 10.4113 8.31605 10.0656L9.21768 9.16401Z" fill="url(#paint0_linear_23119_220)"/>
<defs>
<linearGradient id="paint0_linear_23119_220" x1="12.4111" y1="-0.00225874" x2="-1.75182" y2="28.6187" gradientUnits="userSpaceOnUse">
<stop stop-color="#444BFF"/>
<stop offset="1" stop-color="#DDDEFF"/>
</linearGradient>
</defs>
</svg>
