<svg width="1274" height="596" viewBox="0 0 1274 596" fill="none" xmlns="http://www.w3.org/2000/svg">
<g opacity="0.1">
<rect x="1.38023" y="0.221296" width="98.1858" height="119.396" stroke="#111111" stroke-opacity="0.5" stroke-width="0.442593"/>
<rect x="99.3517" y="0.221296" width="98.1858" height="119.396" stroke="#111111" stroke-opacity="0.5" stroke-width="0.442593"/>
<rect x="197.322" y="0.221296" width="98.1858" height="119.396" stroke="#111111" stroke-opacity="0.5" stroke-width="0.442593"/>
<rect x="295.072" width="98.6284" height="119.839" fill="#000AFF" fill-opacity="0.3"/>
<rect x="393.264" y="0.221296" width="98.1858" height="119.396" stroke="#111111" stroke-opacity="0.5" stroke-width="0.442593"/>
<rect x="491.235" y="0.221296" width="98.1858" height="119.396" stroke="#111111" stroke-opacity="0.5" stroke-width="0.442593"/>
<rect x="589.205" y="0.221296" width="98.1858" height="119.396" stroke="#111111" stroke-opacity="0.5" stroke-width="0.442593"/>
<rect x="687.176" y="0.221296" width="98.1858" height="119.396" stroke="#111111" stroke-opacity="0.5" stroke-width="0.442593"/>
<rect x="784.926" y="6.10352e-05" width="98.6284" height="119.839" fill="#000AFF" fill-opacity="0.3"/>
<rect x="883.118" y="0.221357" width="98.1858" height="119.396" stroke="#111111" stroke-opacity="0.5" stroke-width="0.442593"/>
<rect x="981.089" y="0.221357" width="98.1858" height="119.396" stroke="#111111" stroke-opacity="0.5" stroke-width="0.442593"/>
<rect x="1079.06" y="0.221357" width="98.1858" height="119.396" stroke="#111111" stroke-opacity="0.5" stroke-width="0.442593"/>
<rect x="1177.03" y="0.221357" width="98.1858" height="119.396" stroke="#111111" stroke-opacity="0.5" stroke-width="0.442593"/>
<rect x="1.15894" y="119.04" width="98.6284" height="119.839" fill="#000AFF" fill-opacity="0.3"/>
<rect x="99.3517" y="119.261" width="98.1858" height="119.396" stroke="#111111" stroke-opacity="0.5" stroke-width="0.442593"/>
<rect x="197.322" y="119.261" width="98.1858" height="119.396" stroke="#111111" stroke-opacity="0.5" stroke-width="0.442593"/>
<rect x="295.293" y="119.261" width="98.1858" height="119.396" stroke="#111111" stroke-opacity="0.5" stroke-width="0.442593"/>
<rect x="393.264" y="119.261" width="98.1858" height="119.396" stroke="#111111" stroke-opacity="0.5" stroke-width="0.442593"/>
<rect x="491.235" y="119.261" width="98.1858" height="119.396" stroke="#111111" stroke-opacity="0.5" stroke-width="0.442593"/>
<rect x="589.205" y="119.261" width="98.1858" height="119.396" stroke="#111111" stroke-opacity="0.5" stroke-width="0.442593"/>
<rect x="687.176" y="119.261" width="98.1858" height="119.396" stroke="#111111" stroke-opacity="0.5" stroke-width="0.442593"/>
<rect x="785.148" y="119.261" width="98.1858" height="119.396" stroke="#111111" stroke-opacity="0.5" stroke-width="0.442593"/>
<rect x="883.118" y="119.261" width="98.1858" height="119.396" stroke="#111111" stroke-opacity="0.5" stroke-width="0.442593"/>
<rect x="981.089" y="119.261" width="98.1858" height="119.396" stroke="#111111" stroke-opacity="0.5" stroke-width="0.442593"/>
<rect x="1078.84" y="119.04" width="98.6284" height="119.839" fill="#000AFF" fill-opacity="0.3"/>
<rect x="1177.03" y="119.261" width="98.1858" height="119.396" stroke="#111111" stroke-opacity="0.5" stroke-width="0.442593"/>
<rect x="1.38023" y="238.301" width="98.1858" height="119.396" stroke="#111111" stroke-opacity="0.5" stroke-width="0.442593"/>
<rect x="99.3517" y="238.301" width="98.1858" height="119.396" stroke="#111111" stroke-opacity="0.5" stroke-width="0.442593"/>
<rect x="197.101" y="238.08" width="98.6284" height="119.839" fill="#000AFF" fill-opacity="0.3"/>
<rect x="295.293" y="238.301" width="98.1858" height="119.396" stroke="#111111" stroke-opacity="0.5" stroke-width="0.442593"/>
<rect x="393.264" y="238.301" width="98.1858" height="119.396" stroke="#111111" stroke-opacity="0.5" stroke-width="0.442593"/>
<rect x="491.235" y="238.301" width="98.1858" height="119.396" stroke="#111111" stroke-opacity="0.5" stroke-width="0.442593"/>
<rect x="589.205" y="238.301" width="98.1858" height="119.396" stroke="#111111" stroke-opacity="0.5" stroke-width="0.442593"/>
<rect x="687.176" y="238.301" width="98.1858" height="119.396" stroke="#111111" stroke-opacity="0.5" stroke-width="0.442593"/>
<rect x="785.148" y="238.301" width="98.1858" height="119.396" stroke="#111111" stroke-opacity="0.5" stroke-width="0.442593"/>
<rect x="883.118" y="238.301" width="98.1858" height="119.396" stroke="#111111" stroke-opacity="0.5" stroke-width="0.442593"/>
<rect x="981.089" y="238.301" width="98.1858" height="119.396" stroke="#111111" stroke-opacity="0.5" stroke-width="0.442593"/>
<rect x="1079.06" y="238.301" width="98.1858" height="119.396" stroke="#111111" stroke-opacity="0.5" stroke-width="0.442593"/>
<rect x="1177.03" y="238.301" width="98.1858" height="119.396" stroke="#111111" stroke-opacity="0.5" stroke-width="0.442593"/>
<rect x="1.38023" y="357.341" width="98.1858" height="119.396" stroke="#111111" stroke-opacity="0.5" stroke-width="0.442593"/>
<rect x="99.3517" y="357.341" width="98.1858" height="119.396" stroke="#111111" stroke-opacity="0.5" stroke-width="0.442593"/>
<rect x="197.322" y="357.341" width="98.1858" height="119.396" stroke="#111111" stroke-opacity="0.5" stroke-width="0.442593"/>
<rect x="295.293" y="357.341" width="98.1858" height="119.396" stroke="#111111" stroke-opacity="0.5" stroke-width="0.442593"/>
<rect x="393.264" y="357.341" width="98.1858" height="119.396" stroke="#111111" stroke-opacity="0.5" stroke-width="0.442593"/>
<rect x="491.235" y="357.341" width="98.1858" height="119.396" stroke="#111111" stroke-opacity="0.5" stroke-width="0.442593"/>
<rect x="589.205" y="357.341" width="98.1858" height="119.396" stroke="#111111" stroke-opacity="0.5" stroke-width="0.442593"/>
<rect x="687.176" y="357.341" width="98.1858" height="119.396" stroke="#111111" stroke-opacity="0.5" stroke-width="0.442593"/>
<rect x="785.148" y="357.341" width="98.1858" height="119.396" stroke="#111111" stroke-opacity="0.5" stroke-width="0.442593"/>
<rect x="883.118" y="357.341" width="98.1858" height="119.396" stroke="#111111" stroke-opacity="0.5" stroke-width="0.442593"/>
<rect x="980.868" y="357.12" width="98.6284" height="119.839" fill="#000AFF" fill-opacity="0.3"/>
<rect x="1079.06" y="357.341" width="98.1858" height="119.396" stroke="#111111" stroke-opacity="0.5" stroke-width="0.442593"/>
<rect x="1177.03" y="357.341" width="98.1858" height="119.396" stroke="#111111" stroke-opacity="0.5" stroke-width="0.442593"/>
<rect x="0.770264" y="476.16" width="98.6284" height="119.839" fill="#000AFF" fill-opacity="0.3"/>
<rect x="99.3517" y="476.381" width="98.1858" height="119.396" stroke="#111111" stroke-opacity="0.5" stroke-width="0.442593"/>
<rect x="197.322" y="476.381" width="98.1858" height="119.396" stroke="#111111" stroke-opacity="0.5" stroke-width="0.442593"/>
<rect x="295.293" y="476.381" width="98.1858" height="119.396" stroke="#111111" stroke-opacity="0.5" stroke-width="0.442593"/>
<rect x="393.264" y="476.381" width="98.1858" height="119.396" stroke="#111111" stroke-opacity="0.5" stroke-width="0.442593"/>
<rect x="491.013" y="476.16" width="98.6284" height="119.839" fill="#000AFF" fill-opacity="0.3"/>
<rect x="589.205" y="476.381" width="98.1858" height="119.396" stroke="#111111" stroke-opacity="0.5" stroke-width="0.442593"/>
<rect x="687.176" y="476.381" width="98.1858" height="119.396" stroke="#111111" stroke-opacity="0.5" stroke-width="0.442593"/>
<rect x="785.147" y="476.381" width="98.1858" height="119.396" stroke="#111111" stroke-opacity="0.5" stroke-width="0.442593"/>
<rect x="883.118" y="476.381" width="98.1858" height="119.396" stroke="#111111" stroke-opacity="0.5" stroke-width="0.442593"/>
<rect x="981.089" y="476.381" width="98.1858" height="119.396" stroke="#111111" stroke-opacity="0.5" stroke-width="0.442593"/>
<rect x="1079.06" y="476.381" width="98.1858" height="119.396" stroke="#111111" stroke-opacity="0.5" stroke-width="0.442593"/>
<rect x="1176.81" y="476.16" width="98.6284" height="119.839" fill="#000AFF" fill-opacity="0.3"/>
</g>
</svg>
